<svg id="logo" data-name="logo_black" xmlns="http://www.w3.org/2000/svg" viewBox="0 0 282.43 110.42"><defs><style>.cls-1{fill:#000;}</style></defs><title>design kitchen</title><path class="cls-1" d="M131.65,270.39c0,7.3-5.42,12.91-12.54,12.91H108.78V257.48h10.33C126.23,257.48,131.65,263.09,131.65,270.39Zm-5.68,0c0-4.43-2.8-7.23-6.86-7.23h-4.43v14.46h4.43C123.17,277.62,126,274.82,126,270.39Z" transform="translate(-108.78 -193.48)"/><path class="cls-1" d="M153.23,277.44l5.09-3a5.41,5.41,0,0,0,5.42,3.58c2.8,0,3.5-1.11,3.5-2.1,0-1.59-1.48-2.21-5.35-3.28s-7.6-2.91-7.6-7.86S158.5,257,163,257a10,10,0,0,1,9.44,5.83l-5,2.91a4.52,4.52,0,0,0-4.46-3c-1.84,0-2.77.92-2.77,2s.63,2,4.65,3.21,8.3,2.55,8.3,8c0,5-4,7.93-9.59,7.93C158.13,283.82,154.66,281.23,153.23,277.44Z" transform="translate(-108.78 -193.48)"/><path class="cls-1" d="M181.81,257.48V283.3h-5.9V257.48Z" transform="translate(-108.78 -193.48)"/><path class="cls-1" d="M211.79,271.13c0,7.89-5.5,12.69-12.72,12.69-8.11,0-13.94-6-13.94-13.39A13.39,13.39,0,0,1,198.66,257a13.21,13.21,0,0,1,11.29,5.9l-5,2.88a7.76,7.76,0,0,0-13.9,4.72c0,4.39,3.1,7.6,8.11,7.6,3.43,0,5.68-1.51,6.6-4h-6.9v-5.16h12.94Z" transform="translate(-108.78 -193.48)"/><path class="cls-1" d="M235.39,257.48V283.3H231l-10-14v14h-5.9V257.48h4.43l10,14v-14Z" transform="translate(-108.78 -193.48)"/><path class="cls-1" d="M263.2,283.3l-8.26-11.95V283.3H249V257.48h5.9V268.7l7.89-11.21h6.71l-8.7,12.58,9.07,13.24Z" transform="translate(-108.78 -193.48)"/><path class="cls-1" d="M278,257.48V283.3h-5.9V257.48Z" transform="translate(-108.78 -193.48)"/><path class="cls-1" d="M299.79,263.16h-6.64V283.3h-5.9V263.16h-6.64v-5.68h19.18Z" transform="translate(-108.78 -193.48)"/><path class="cls-1" d="M299.79,270.39A13.09,13.09,0,0,1,313.21,257a12.88,12.88,0,0,1,11.06,6l-5.09,3a6.67,6.67,0,0,0-6-3.17c-4.57,0-7.52,3.06-7.52,7.67s3,7.67,7.52,7.67a6.63,6.63,0,0,0,6-3.17l5.09,3a12.78,12.78,0,0,1-11.06,6A13.09,13.09,0,0,1,299.79,270.39Z" transform="translate(-108.78 -193.48)"/><path class="cls-1" d="M347,257.48V283.3h-5.9V273h-8.11V283.3H327V257.48h5.9v9.88h8.11v-9.88Z" transform="translate(-108.78 -193.48)"/><path class="cls-1" d="M391.22,257.48V283.3h-4.43l-10-14v14h-5.9V257.48h4.43l10,14v-14Z" transform="translate(-108.78 -193.48)"/><polygon class="cls-1" points="42.23 69.68 42.23 64 26.18 64 26.18 69.68 32.09 69.68 42.23 69.68"/><polygon class="cls-1" points="32.09 84.14 26.18 84.14 26.18 89.82 42.41 89.82 42.41 84.14 32.09 84.14 32.09 84.14"/><polygon class="cls-1" points="32.09 79.56 41.31 79.56 41.31 73.96 32.09 73.96 32.09 73.94 26.18 73.94 26.18 79.57 32.09 79.57 32.09 79.56"/><polygon class="cls-1" points="248.78 69.68 258.64 69.68 258.64 64 242.6 64 242.6 69.68 248.5 69.68 248.78 69.68"/><polygon class="cls-1" points="248.5 79.56 257.72 79.56 257.72 73.96 248.5 73.96 248.5 73.94 242.6 73.94 242.6 79.57 248.5 79.57 248.5 79.56"/><polygon class="cls-1" points="248.5 84.14 248.5 84.14 242.6 84.14 242.6 89.82 258.83 89.82 258.83 84.14 248.5 84.14"/><path class="cls-1" d="M204.8,303.4a.44.44,0,0,1-.45.32h-1a.45.45,0,0,1-.45-.36l-1.08-4.47c-.08-.34-.14-.68-.22-1h-.16c-.08.36-.16.7-.23,1l-1.07,4.47a.46.46,0,0,1-.46.36h-1a.44.44,0,0,1-.45-.32l-1.92-6.26h1.19l1.37,4.85a8.62,8.62,0,0,1,.22,1h.18l.24-1,1.09-4.49a.43.43,0,0,1,.43-.36h1a.45.45,0,0,1,.43.38l1.08,4.47c.07.32.16.65.23,1h.18c.08-.34.12-.65.23-1l1.37-4.85h1.19Z" transform="translate(-108.78 -193.48)"/><path class="cls-1" d="M217.39,302.75l.12.77a8.17,8.17,0,0,1-2.55.36c-2.27,0-3.15-.95-3.15-3.47s.91-3.43,3-3.43,2.83.73,2.83,2.15c0,1.18-.47,1.87-1.57,1.87H213c.11,1.57.72,1.92,2.07,1.92A18.19,18.19,0,0,0,217.39,302.75ZM213,300.1h2.78c.59,0,.72-.49.72-1,0-.84-.45-1.18-1.62-1.18C213.53,298,213.05,298.44,213,300.1Z" transform="translate(-108.78 -193.48)"/><path class="cls-1" d="M229.37,300.42c0,2.26-.66,3.47-2.92,3.47a10,10,0,0,1-3-.47v-9.15h1.15v2.46a6.26,6.26,0,0,1-.12,1.46A3.57,3.57,0,0,1,227,297C228.62,297,229.37,297.94,229.37,300.42Zm-1.19,0c0-1.81-.32-2.43-1.6-2.43a3.4,3.4,0,0,0-2,1v3.73a7,7,0,0,0,1.85.22C227.7,302.9,228.17,302.28,228.18,300.42Z" transform="translate(-108.78 -193.48)"/><path class="cls-1" d="M247.25,297.18l-.1.84c-.82,0-1.68-.07-2.5-.07-1.22,0-1.62,0-1.62.84s.32.8,1,.95l1.92.43c1,.26,1.53.69,1.53,1.81,0,1.62-.91,1.89-2.81,1.89a16.86,16.86,0,0,1-2.58-.19l.08-.84c.65,0,1.42.07,2.27.05,1.47,0,1.93-.13,1.93-.92s-.41-.77-1-.92l-1.89-.43a1.63,1.63,0,0,1-1.49-1.84c0-1.53.77-1.84,2.57-1.81A23.08,23.08,0,0,1,247.25,297.18Z" transform="translate(-108.78 -193.48)"/><path class="cls-1" d="M254.86,301.92c0,.64.24.88.89.88h1l.14.88a6.88,6.88,0,0,1-1.49.18,1.56,1.56,0,0,1-1.69-1.78v-4h-1.19v-.84l1.19-.07V295.2h1.15v1.95H257V298h-2.1Z" transform="translate(-108.78 -193.48)"/><path class="cls-1" d="M268,303.73h-.92l-.08-1a4.71,4.71,0,0,1-2.84,1.14,1.61,1.61,0,0,1-1.8-1.81v-4.95h1.15v4.62c0,.84.28,1.14,1,1.14a4.32,4.32,0,0,0,2.3-.95v-4.81H268Z" transform="translate(-108.78 -193.48)"/><path class="cls-1" d="M279.81,303.73h-.89l-.11-.95a4,4,0,0,1-2.61,1.11c-1.66,0-2.31-1.18-2.31-3.47,0-2.57.8-3.43,2.49-3.43a4.93,4.93,0,0,1,2.34.59c0-.42-.05-.82-.05-1.28v-2h1.15Zm-3.23-.84a3.36,3.36,0,0,0,2.08-.91v-3.64a7.05,7.05,0,0,0-2-.36c-1.14,0-1.58.47-1.58,2.42S275.51,302.89,276.58,302.89Z" transform="translate(-108.78 -193.48)"/><path class="cls-1" d="M286.88,294.35a.31.31,0,0,1,.35.35v.77c0,.24-.11.35-.35.35h-.54a.31.31,0,0,1-.35-.35v-.77a.32.32,0,0,1,.35-.35Zm-.84,9.38v-6.58h1.14v6.58Z" transform="translate(-108.78 -193.48)"/><path class="cls-1" d="M299.28,300.44c0,2.53-.82,3.46-3.1,3.46s-3.1-.93-3.1-3.46.84-3.46,3.1-3.46S299.28,297.93,299.28,300.44Zm-5,0c0,1.92.46,2.49,1.89,2.49s1.91-.57,1.91-2.49-.47-2.49-1.91-2.49S294.29,298.52,294.29,300.44Z" transform="translate(-108.78 -193.48)"/><path class="cls-1" d="M223.71,193.48v52.58h52.58V193.48ZM249.29,228h-6.6V211.52h6.6a8.26,8.26,0,0,1,0,16.51Z" transform="translate(-108.78 -193.48)"/><path class="cls-1" d="M249.29,215.15h-2.83v9.25h2.83c2.6,0,4.39-1.79,4.39-4.62S251.89,215.15,249.29,215.15Z" transform="translate(-108.78 -193.48)"/></svg>